<mxfile host="65bd71144e">
    <diagram id="ZishI27C55qHxQkGhyAE" name="Page-1">
        <mxGraphModel dx="632" dy="336" grid="0" gridSize="10" guides="1" tooltips="1" connect="1" arrows="1" fold="1" page="0" pageScale="1" pageWidth="827" pageHeight="1169" math="0" shadow="0">
            <root>
                <mxCell id="0"/>
                <mxCell id="1" parent="0"/>
                <mxCell id="64" value="" style="html=1;dropTarget=0;" vertex="1" parent="1">
                    <mxGeometry x="260" y="601" width="400" height="127" as="geometry"/>
                </mxCell>
                <mxCell id="65" value="" style="shape=module;jettyWidth=8;jettyHeight=4;" vertex="1" parent="64">
                    <mxGeometry x="1" width="20" height="20" relative="1" as="geometry">
                        <mxPoint x="-27" y="7" as="offset"/>
                    </mxGeometry>
                </mxCell>
                <mxCell id="2" value="" style="html=1;dropTarget=0;" vertex="1" parent="1">
                    <mxGeometry x="260" y="180" width="400" height="120" as="geometry"/>
                </mxCell>
                <mxCell id="3" value="" style="shape=module;jettyWidth=8;jettyHeight=4;" vertex="1" parent="2">
                    <mxGeometry x="1" width="20" height="20" relative="1" as="geometry">
                        <mxPoint x="-27" y="7" as="offset"/>
                    </mxGeometry>
                </mxCell>
                <mxCell id="4" value="&amp;lt;&amp;lt;component&amp;gt;&amp;gt;&lt;br&gt;UI" style="text;html=1;resizable=0;autosize=1;align=center;verticalAlign=middle;points=[];fillColor=none;strokeColor=none;rounded=0;" vertex="1" parent="1">
                    <mxGeometry x="405" y="200" width="100" height="30" as="geometry"/>
                </mxCell>
                <mxCell id="54" style="edgeStyle=none;html=1;exitX=0.985;exitY=0.804;exitDx=0;exitDy=0;entryX=0.5;entryY=0;entryDx=0;entryDy=0;dashed=1;endArrow=open;endFill=0;exitPerimeter=0;" edge="1" parent="1" source="5" target="29">
                    <mxGeometry relative="1" as="geometry"/>
                </mxCell>
                <mxCell id="55" style="edgeStyle=none;html=1;exitX=1;exitY=0.25;exitDx=0;exitDy=0;entryX=0.5;entryY=0;entryDx=0;entryDy=0;dashed=1;endArrow=open;endFill=0;startArrow=open;startFill=0;" edge="1" parent="1" source="5" target="34">
                    <mxGeometry relative="1" as="geometry"/>
                </mxCell>
                <mxCell id="5" value="&amp;lt;&amp;lt;component&amp;gt;&amp;gt;&lt;br&gt;React" style="html=1;dropTarget=0;direction=south;" vertex="1" parent="1">
                    <mxGeometry x="280" y="242.5" width="360" height="45" as="geometry"/>
                </mxCell>
                <mxCell id="6" value="" style="shape=module;jettyWidth=8;jettyHeight=4;" vertex="1" parent="5">
                    <mxGeometry x="1" width="20" height="20" relative="1" as="geometry">
                        <mxPoint x="-27" y="7" as="offset"/>
                    </mxGeometry>
                </mxCell>
                <mxCell id="7" value="" style="html=1;dropTarget=0;" vertex="1" parent="1">
                    <mxGeometry x="260" y="340" width="400" height="201" as="geometry"/>
                </mxCell>
                <mxCell id="8" value="" style="shape=module;jettyWidth=8;jettyHeight=4;" vertex="1" parent="7">
                    <mxGeometry x="1" width="20" height="20" relative="1" as="geometry">
                        <mxPoint x="-27" y="7" as="offset"/>
                    </mxGeometry>
                </mxCell>
                <mxCell id="9" value="&amp;lt;&amp;lt;component&amp;gt;&amp;gt;&lt;br&gt;Business Logic" style="text;html=1;resizable=0;autosize=1;align=center;verticalAlign=middle;points=[];fillColor=none;strokeColor=none;rounded=0;" vertex="1" parent="1">
                    <mxGeometry x="410" y="350" width="100" height="30" as="geometry"/>
                </mxCell>
                <mxCell id="58" style="edgeStyle=none;rounded=0;html=1;exitX=1;exitY=0.5;exitDx=0;exitDy=0;entryX=0;entryY=0.5;entryDx=0;entryDy=0;dashed=1;endArrow=open;endFill=0;" edge="1" parent="1" source="10" target="17">
                    <mxGeometry relative="1" as="geometry"/>
                </mxCell>
                <mxCell id="59" style="edgeStyle=none;rounded=0;html=1;exitX=1;exitY=0.5;exitDx=0;exitDy=0;entryX=0.5;entryY=1;entryDx=0;entryDy=0;dashed=1;endArrow=open;endFill=0;" edge="1" parent="1" source="10" target="19">
                    <mxGeometry relative="1" as="geometry">
                        <Array as="points">
                            <mxPoint x="350" y="450"/>
                            <mxPoint x="450" y="450"/>
                            <mxPoint x="450" y="493"/>
                        </Array>
                    </mxGeometry>
                </mxCell>
                <mxCell id="10" value="&amp;lt;&amp;lt;component&amp;gt;&amp;gt;&lt;br&gt;Editor" style="html=1;dropTarget=0;direction=south;" vertex="1" parent="1">
                    <mxGeometry x="270" y="390" width="160" height="45" as="geometry"/>
                </mxCell>
                <mxCell id="11" value="" style="shape=module;jettyWidth=8;jettyHeight=4;" vertex="1" parent="10">
                    <mxGeometry x="1" width="20" height="20" relative="1" as="geometry">
                        <mxPoint x="-27" y="7" as="offset"/>
                    </mxGeometry>
                </mxCell>
                <mxCell id="57" style="edgeStyle=none;rounded=0;html=1;exitX=1;exitY=0.5;exitDx=0;exitDy=0;dashed=1;endArrow=open;endFill=0;" edge="1" parent="1" source="12">
                    <mxGeometry relative="1" as="geometry">
                        <mxPoint x="550.1379310344828" y="470" as="targetPoint"/>
                    </mxGeometry>
                </mxCell>
                <mxCell id="12" value="&amp;lt;&amp;lt;component&amp;gt;&amp;gt;&lt;br&gt;Controller" style="html=1;dropTarget=0;direction=south;" vertex="1" parent="1">
                    <mxGeometry x="470" y="390" width="160" height="45" as="geometry"/>
                </mxCell>
                <mxCell id="13" value="" style="shape=module;jettyWidth=8;jettyHeight=4;" vertex="1" parent="12">
                    <mxGeometry x="1" width="20" height="20" relative="1" as="geometry">
                        <mxPoint x="-27" y="7" as="offset"/>
                    </mxGeometry>
                </mxCell>
                <mxCell id="68" style="edgeStyle=none;rounded=0;html=1;exitX=1;exitY=0.5;exitDx=0;exitDy=0;entryX=0.5;entryY=0;entryDx=0;entryDy=0;dashed=1;startArrow=none;startFill=0;endArrow=open;endFill=0;" edge="1" parent="1" source="17" target="66">
                    <mxGeometry relative="1" as="geometry"/>
                </mxCell>
                <mxCell id="17" value="&amp;lt;&amp;lt;component&amp;gt;&amp;gt;&lt;br&gt;SkillDelivery" style="html=1;dropTarget=0;direction=south;" vertex="1" parent="1">
                    <mxGeometry x="270" y="470" width="160" height="45" as="geometry"/>
                </mxCell>
                <mxCell id="18" value="" style="shape=module;jettyWidth=8;jettyHeight=4;" vertex="1" parent="17">
                    <mxGeometry x="1" width="20" height="20" relative="1" as="geometry">
                        <mxPoint x="-27" y="7" as="offset"/>
                    </mxGeometry>
                </mxCell>
                <mxCell id="52" style="edgeStyle=none;html=1;exitX=1;exitY=0.5;exitDx=0;exitDy=0;entryX=0.5;entryY=0;entryDx=0;entryDy=0;dashed=1;endArrow=open;endFill=0;startArrow=none;" edge="1" parent="1" source="19" target="69">
                    <mxGeometry relative="1" as="geometry"/>
                </mxCell>
                <mxCell id="19" value="&amp;lt;&amp;lt;component&amp;gt;&amp;gt;&lt;br&gt;HeroDelivery" style="html=1;dropTarget=0;direction=south;" vertex="1" parent="1">
                    <mxGeometry x="470" y="470" width="160" height="45" as="geometry"/>
                </mxCell>
                <mxCell id="20" value="" style="shape=module;jettyWidth=8;jettyHeight=4;" vertex="1" parent="19">
                    <mxGeometry x="1" width="20" height="20" relative="1" as="geometry">
                        <mxPoint x="-27" y="7" as="offset"/>
                    </mxGeometry>
                </mxCell>
                <mxCell id="27" value="IController" style="text;html=1;resizable=0;autosize=1;align=center;verticalAlign=middle;points=[];fillColor=none;strokeColor=none;rounded=0;" vertex="1" parent="1">
                    <mxGeometry x="560" y="360" width="70" height="20" as="geometry"/>
                </mxCell>
                <mxCell id="30" style="edgeStyle=none;html=1;exitX=0;exitY=0.5;exitDx=0;exitDy=0;exitPerimeter=0;entryX=0;entryY=0.5;entryDx=0;entryDy=0;endArrow=none;endFill=0;" edge="1" parent="1" source="28" target="10">
                    <mxGeometry relative="1" as="geometry"/>
                </mxCell>
                <mxCell id="28" value="" style="shape=providedRequiredInterface;html=1;verticalLabelPosition=bottom;sketch=0;rotation=-90;" vertex="1" parent="1">
                    <mxGeometry x="340" y="360" width="20" height="20" as="geometry"/>
                </mxCell>
                <mxCell id="31" style="edgeStyle=none;html=1;exitX=0.5;exitY=1;exitDx=0;exitDy=0;entryX=1;entryY=0.5;entryDx=0;entryDy=0;entryPerimeter=0;endArrow=none;endFill=0;" edge="1" parent="1" source="29" target="28">
                    <mxGeometry relative="1" as="geometry"/>
                </mxCell>
                <mxCell id="29" value="" style="rounded=0;whiteSpace=wrap;html=1;" vertex="1" parent="1">
                    <mxGeometry x="340" y="330" width="20" height="20" as="geometry"/>
                </mxCell>
                <mxCell id="35" style="edgeStyle=none;html=1;exitX=0;exitY=0.5;exitDx=0;exitDy=0;exitPerimeter=0;entryX=0;entryY=0.5;entryDx=0;entryDy=0;endArrow=none;endFill=0;" edge="1" parent="1" source="32" target="12">
                    <mxGeometry relative="1" as="geometry"/>
                </mxCell>
                <mxCell id="32" value="" style="shape=providedRequiredInterface;html=1;verticalLabelPosition=bottom;sketch=0;rotation=-90;" vertex="1" parent="1">
                    <mxGeometry x="540" y="360" width="20" height="20" as="geometry"/>
                </mxCell>
                <mxCell id="33" style="edgeStyle=none;html=1;exitX=0.5;exitY=1;exitDx=0;exitDy=0;entryX=1;entryY=0.5;entryDx=0;entryDy=0;entryPerimeter=0;endArrow=none;endFill=0;" edge="1" parent="1" source="34" target="32">
                    <mxGeometry relative="1" as="geometry"/>
                </mxCell>
                <mxCell id="34" value="" style="rounded=0;whiteSpace=wrap;html=1;" vertex="1" parent="1">
                    <mxGeometry x="540" y="330" width="20" height="20" as="geometry"/>
                </mxCell>
                <mxCell id="38" value="IEditor" style="text;html=1;resizable=0;autosize=1;align=center;verticalAlign=middle;points=[];fillColor=none;strokeColor=none;rounded=0;" vertex="1" parent="1">
                    <mxGeometry x="290" y="360" width="50" height="20" as="geometry"/>
                </mxCell>
                <mxCell id="76" style="edgeStyle=none;rounded=0;html=1;exitX=1;exitY=0.5;exitDx=0;exitDy=0;entryX=0.503;entryY=0.002;entryDx=0;entryDy=0;entryPerimeter=0;dashed=1;startArrow=none;startFill=0;endArrow=open;endFill=0;" edge="1" parent="1" source="39" target="74">
                    <mxGeometry relative="1" as="geometry">
                        <Array as="points">
                            <mxPoint x="350" y="750"/>
                            <mxPoint x="455" y="750"/>
                        </Array>
                    </mxGeometry>
                </mxCell>
                <mxCell id="39" value="&amp;lt;&amp;lt;component&amp;gt;&amp;gt;&lt;br&gt;SkillRepository" style="html=1;dropTarget=0;direction=south;" vertex="1" parent="1">
                    <mxGeometry x="270" y="672.5" width="160" height="45" as="geometry"/>
                </mxCell>
                <mxCell id="40" value="" style="shape=module;jettyWidth=8;jettyHeight=4;" vertex="1" parent="39">
                    <mxGeometry x="1" width="20" height="20" relative="1" as="geometry">
                        <mxPoint x="-27" y="7" as="offset"/>
                    </mxGeometry>
                </mxCell>
                <mxCell id="75" style="edgeStyle=none;rounded=0;html=1;exitX=1;exitY=0.5;exitDx=0;exitDy=0;entryX=0.5;entryY=-0.004;entryDx=0;entryDy=0;entryPerimeter=0;startArrow=none;startFill=0;endArrow=open;endFill=0;dashed=1;" edge="1" parent="1" source="41" target="74">
                    <mxGeometry relative="1" as="geometry">
                        <Array as="points">
                            <mxPoint x="550" y="750"/>
                            <mxPoint x="455" y="750"/>
                        </Array>
                    </mxGeometry>
                </mxCell>
                <mxCell id="41" value="&amp;lt;&amp;lt;component&amp;gt;&amp;gt;&lt;br&gt;HeroRepository" style="html=1;dropTarget=0;direction=south;" vertex="1" parent="1">
                    <mxGeometry x="470" y="672.5" width="160" height="45" as="geometry"/>
                </mxCell>
                <mxCell id="42" value="" style="shape=module;jettyWidth=8;jettyHeight=4;" vertex="1" parent="41">
                    <mxGeometry x="1" width="20" height="20" relative="1" as="geometry">
                        <mxPoint x="-27" y="7" as="offset"/>
                    </mxGeometry>
                </mxCell>
                <mxCell id="48" style="edgeStyle=none;html=1;exitX=0;exitY=0.5;exitDx=0;exitDy=0;exitPerimeter=0;entryX=0;entryY=0.5;entryDx=0;entryDy=0;endArrow=none;endFill=0;" edge="1" parent="1" source="43" target="39">
                    <mxGeometry relative="1" as="geometry"/>
                </mxCell>
                <mxCell id="43" value="" style="shape=providedRequiredInterface;html=1;verticalLabelPosition=bottom;sketch=0;rotation=-90;" vertex="1" parent="1">
                    <mxGeometry x="340" y="640" width="20" height="20" as="geometry"/>
                </mxCell>
                <mxCell id="49" style="edgeStyle=none;html=1;exitX=0;exitY=0.5;exitDx=0;exitDy=0;exitPerimeter=0;entryX=0;entryY=0.5;entryDx=0;entryDy=0;endArrow=none;endFill=0;" edge="1" parent="1" source="44" target="41">
                    <mxGeometry relative="1" as="geometry"/>
                </mxCell>
                <mxCell id="44" value="" style="shape=providedRequiredInterface;html=1;verticalLabelPosition=bottom;sketch=0;rotation=-90;" vertex="1" parent="1">
                    <mxGeometry x="540" y="640" width="20" height="20" as="geometry"/>
                </mxCell>
                <mxCell id="45" value="ISkillRepository" style="text;html=1;resizable=0;autosize=1;align=center;verticalAlign=middle;points=[];fillColor=none;strokeColor=none;rounded=0;" vertex="1" parent="1">
                    <mxGeometry x="255" y="624" width="93" height="18" as="geometry"/>
                </mxCell>
                <mxCell id="47" value="IHeroRepository" style="text;html=1;resizable=0;autosize=1;align=center;verticalAlign=middle;points=[];fillColor=none;strokeColor=none;rounded=0;" vertex="1" parent="1">
                    <mxGeometry x="552" y="624" width="97" height="18" as="geometry"/>
                </mxCell>
                <mxCell id="71" style="edgeStyle=none;rounded=0;html=1;exitX=0.5;exitY=1;exitDx=0;exitDy=0;entryX=1;entryY=0.5;entryDx=0;entryDy=0;entryPerimeter=0;startArrow=none;startFill=0;endArrow=none;endFill=0;" edge="1" parent="1" source="66" target="43">
                    <mxGeometry relative="1" as="geometry"/>
                </mxCell>
                <mxCell id="66" value="" style="rounded=0;whiteSpace=wrap;html=1;" vertex="1" parent="1">
                    <mxGeometry x="340" y="591" width="20" height="20" as="geometry"/>
                </mxCell>
                <mxCell id="72" style="edgeStyle=none;rounded=0;html=1;exitX=0.5;exitY=1;exitDx=0;exitDy=0;entryX=1;entryY=0.5;entryDx=0;entryDy=0;entryPerimeter=0;startArrow=none;startFill=0;endArrow=none;endFill=0;" edge="1" parent="1" source="69" target="44">
                    <mxGeometry relative="1" as="geometry"/>
                </mxCell>
                <mxCell id="69" value="" style="rounded=0;whiteSpace=wrap;html=1;" vertex="1" parent="1">
                    <mxGeometry x="540" y="591" width="20" height="20" as="geometry"/>
                </mxCell>
                <mxCell id="73" value="&amp;lt;&amp;lt;component&amp;gt;&amp;gt;&lt;br&gt;Data Access" style="text;html=1;resizable=0;autosize=1;align=center;verticalAlign=middle;points=[];fillColor=none;strokeColor=none;rounded=0;" vertex="1" parent="1">
                    <mxGeometry x="411.5" y="606" width="97" height="32" as="geometry"/>
                </mxCell>
                <mxCell id="74" value="Database" style="html=1;verticalLabelPosition=bottom;align=center;labelBackgroundColor=#ffffff;verticalAlign=top;strokeWidth=1;strokeColor=#000000;shadow=0;dashed=0;shape=mxgraph.ios7.icons.data;" vertex="1" parent="1">
                    <mxGeometry x="415" y="778" width="80" height="75" as="geometry"/>
                </mxCell>
            </root>
        </mxGraphModel>
    </diagram>
</mxfile>